MutatorSansInstance_1000-800.ufo
<glyph name="comma" format="2">
  <advance width="298"/>
  <unicode hex="002C"/>
  <outline>
    <contour>
      <point x="244" y="0" type="line"/>
      <point x="244" y="300" type="line"/>
      <point x="54" y="300" type="line"/>
      <point x="54" y="0" type="line"/>
      <point x="133" y="-16" type="line"/>
      <point x="125" y="12" type="line"/>
      <point x="103" y="-143" type="line"/>
      <point x="175" y="-145" type="line"/>
    </contour>
  </outline>
</glyph>
<glyph name="A" format="2">
  <advance width="1180"/>
  <unicode hex="0041"/>
  <outline>
    <contour>
      <point x="18" y="0" type="line"/>
      <point x="330" y="0" type="line"/>
      <point x="579" y="800" type="line"/>
      <point x="313" y="800" type="line"/>
    </contour>
    <contour>
      <point x="190" y="120" type="line"/>
      <point x="868" y="120" type="line"/>
      <point x="868" y="338" type="line"/>
      <point x="190" y="338" type="line"/>
    </contour>
    <contour>
      <point x="718" y="0" type="line"/>
      <point x="1162" y="0" type="line"/>
      <point x="867" y="800" type="line"/>
      <point x="443" y="800" type="line"/>
    </contour>
    <contour>
      <point x="369" y="540" type="line"/>
      <point x="759" y="540" type="line"/>
      <point x="759" y="800" type="line"/>
      <point x="369" y="800" type="line"/>
    </contour>
  </outline>
</glyph>
<glyph name="B" format="2">
  <advance width="1182"/>
  <unicode hex="0042"/>
  <outline>
    <contour>
      <point x="54" y="0" type="line"/>
      <point x="452" y="0" type="line"/>
      <point x="452" y="801" type="line"/>
      <point x="54" y="801" type="line"/>
    </contour>
    <contour>
      <point x="416" y="339" type="line"/>
      <point x="695" y="339" type="line" smooth="yes"/>
      <point x="734" y="339"/>
      <point x="765" y="332"/>
      <point x="765" y="287" type="curve" smooth="yes"/>
      <point x="765" y="248"/>
      <point x="734" y="238"/>
      <point x="695" y="238" type="curve" smooth="yes"/>
      <point x="416" y="238" type="line"/>
      <point x="416" y="0" type="line"/>
      <point x="844" y="0" type="line" smooth="yes"/>
      <point x="1099" y="0"/>
      <point x="1164" y="94"/>
      <point x="1164" y="230" type="curve" smooth="yes"/>
      <point x="1164" y="356"/>
      <point x="1093" y="417"/>
      <point x="999" y="434" type="curve"/>
      <point x="973" y="377" type="line"/>
      <point x="1050" y="392"/>
      <point x="1138" y="444"/>
      <point x="1138" y="563" type="curve" smooth="yes"/>
      <point x="1138" y="711"/>
      <point x="1053" y="800"/>
      <point x="794" y="800" type="curve" smooth="yes"/>
      <point x="416" y="800" type="line"/>
      <point x="416" y="574" type="line"/>
      <point x="663" y="574" type="line" smooth="yes"/>
      <point x="710" y="574"/>
      <point x="741" y="565"/>
      <point x="741" y="527" type="curve" smooth="yes"/>
      <point x="741" y="476"/>
      <point x="710" y="478"/>
      <point x="663" y="478" type="curve" smooth="yes"/>
      <point x="416" y="478" type="line"/>
    </contour>
  </outline>
</glyph>
<glyph name="C" format="2">
  <advance width="1264"/>
  <unicode hex="0043"/>
  <outline>
    <contour>
      <point x="827" y="365" type="line"/>
      <point x="814" y="286"/>
      <point x="760" y="254"/>
      <point x="676" y="254" type="curve" smooth="yes"/>
      <point x="599" y="254" type="line" smooth="yes"/>
      <point x="503" y="254"/>
      <point x="446" y="298"/>
      <point x="446" y="403" type="curve" smooth="yes"/>
      <point x="446" y="504"/>
      <point x="503" y="546"/>
      <point x="599" y="546" type="curve" smooth="yes"/>
      <point x="676" y="546" type="line" smooth="yes"/>
      <point x="760" y="546"/>
      <point x="813" y="516"/>
      <point x="827" y="442" type="curve"/>
      <point x="1227" y="484" type="line"/>
      <point x="1189" y="705"/>
      <point x="1001" y="810"/>
      <point x="719" y="810" type="curve" smooth="yes"/>
      <point x="554" y="810" type="line" smooth="yes"/>
      <point x="236" y="810"/>
      <point x="36" y="679"/>
      <point x="36" y="403" type="curve" smooth="yes"/>
      <point x="36" y="124"/>
      <point x="236" y="-10"/>
      <point x="554" y="-10" type="curve" smooth="yes"/>
      <point x="719" y="-10" type="line" smooth="yes"/>
      <point x="1003" y="-10"/>
      <point x="1192" y="99"/>
      <point x="1228" y="325" type="curve"/>
    </contour>
  </outline>
</glyph>
<glyph name="D" format="2">
  <advance width="1129"/>
  <unicode hex="0044"/>
  <outline>
    <contour>
      <point x="54" y="0" type="line"/>
      <point x="448" y="0" type="line"/>
      <point x="448" y="800" type="line"/>
      <point x="54" y="800" type="line"/>
    </contour>
    <contour>
      <point x="397" y="546" type="line"/>
      <point x="531" y="546" type="line" smooth="yes"/>
      <point x="627" y="546"/>
      <point x="684" y="504"/>
      <point x="684" y="403" type="curve" smooth="yes"/>
      <point x="684" y="298"/>
      <point x="627" y="254"/>
      <point x="531" y="254" type="curve" smooth="yes"/>
      <point x="395" y="254" type="line"/>
      <point x="395" y="0" type="line"/>
      <point x="575" y="0" type="line" smooth="yes"/>
      <point x="893" y="0"/>
      <point x="1093" y="125"/>
      <point x="1093" y="403" type="curve" smooth="yes"/>
      <point x="1093" y="678"/>
      <point x="893" y="800"/>
      <point x="575" y="800" type="curve" smooth="yes"/>
      <point x="397" y="800" type="line"/>
    </contour>
  </outline>
</glyph>
<glyph name="E" format="2">
  <advance width="1088"/>
  <unicode hex="0045"/>
  <anchor x="528" y="841" name="top"/>
  <outline>
    <contour>
      <point x="56" y="0" type="line"/>
      <point x="450" y="0" type="line"/>
      <point x="450" y="800" type="line"/>
      <point x="56" y="800" type="line"/>
    </contour>
    <contour>
      <point x="146" y="530" type="line"/>
      <point x="1034" y="530" type="line"/>
      <point x="1034" y="800" type="line"/>
      <point x="146" y="800" type="line"/>
    </contour>
    <contour>
      <point x="146" y="0" type="line"/>
      <point x="1034" y="0" type="line"/>
      <point x="1034" y="270" type="line"/>
      <point x="146" y="270" type="line"/>
    </contour>
    <contour>
      <point x="146" y="315" type="line"/>
      <point x="856" y="315" type="line"/>
      <point x="856" y="485" type="line"/>
      <point x="146" y="485" type="line"/>
    </contour>
  </outline>
</glyph>
<glyph name="F" format="2">
  <advance width="1080"/>
  <unicode hex="0046"/>
  <outline>
    <contour>
      <point x="54" y="0" type="line"/>
      <point x="454" y="0" type="line"/>
      <point x="454" y="800" type="line"/>
      <point x="54" y="800" type="line"/>
    </contour>
    <contour>
      <point x="146" y="534" type="line"/>
      <point x="1026" y="534" type="line"/>
      <point x="1026" y="800" type="line"/>
      <point x="146" y="800" type="line"/>
    </contour>
    <contour>
      <point x="146" y="243" type="line"/>
      <point x="932" y="243" type="line"/>
      <point x="932" y="469" type="line"/>
      <point x="146" y="469" type="line"/>
    </contour>
  </outline>
</glyph>
<glyph name="G" format="2">
  <advance width="1294"/>
  <unicode hex="0047"/>
  <outline>
    <contour>
      <point x="596" y="313" type="line"/>
      <point x="843" y="313" type="line"/>
      <point x="843" y="216" type="line"/>
      <point x="1023" y="0" type="line"/>
      <point x="1240" y="0" type="line"/>
      <point x="1240" y="418" type="line"/>
      <point x="596" y="418" type="line"/>
    </contour>
    <contour>
      <point x="831" y="373" type="line"/>
      <point x="818" y="294"/>
      <point x="763" y="254"/>
      <point x="676" y="254" type="curve" smooth="yes"/>
      <point x="599" y="254" type="line" smooth="yes"/>
      <point x="503" y="254"/>
      <point x="446" y="298"/>
      <point x="446" y="403" type="curve" smooth="yes"/>
      <point x="446" y="504"/>
      <point x="504" y="546"/>
      <point x="602" y="546" type="curve" smooth="yes"/>
      <point x="679" y="546" type="line" smooth="yes"/>
      <point x="763" y="546"/>
      <point x="817" y="516"/>
      <point x="831" y="442" type="curve"/>
      <point x="1225" y="484" type="line"/>
      <point x="1187" y="705"/>
      <point x="1000" y="810"/>
      <point x="719" y="810" type="curve" smooth="yes"/>
      <point x="554" y="810" type="line" smooth="yes"/>
      <point x="236" y="810"/>
      <point x="36" y="679"/>
      <point x="36" y="403" type="curve" smooth="yes"/>
      <point x="36" y="124"/>
      <point x="236" y="-10"/>
      <point x="554" y="-10" type="curve" smooth="yes"/>
      <point x="575" y="-10" type="line" smooth="yes"/>
      <point x="858" y="-10"/>
      <point x="1046" y="107"/>
      <point x="1082" y="333" type="curve"/>
    </contour>
  </outline>
</glyph>
<glyph name="H" format="2">
  <advance width="1238"/>
  <unicode hex="0048"/>
  <outline>
    <contour>
      <point x="54" y="0" type="line"/>
      <point x="454" y="0" type="line"/>
      <point x="454" y="800" type="line"/>
      <point x="54" y="800" type="line"/>
    </contour>
    <contour>
      <point x="212" y="268" type="line"/>
      <point x="1026" y="268" type="line"/>
      <point x="1026" y="528" type="line"/>
      <point x="212" y="528" type="line"/>
    </contour>
    <contour>
      <point x="784" y="0" type="line"/>
      <point x="1184" y="0" type="line"/>
      <point x="1184" y="800" type="line"/>
      <point x="784" y="800" type="line"/>
    </contour>
  </outline>
</glyph>
<glyph name="I" format="2">
  <advance width="928"/>
  <unicode hex="0049"/>
  <outline>
    <contour>
      <point x="264" y="0" type="line"/>
      <point x="664" y="0" type="line"/>
      <point x="664" y="800" type="line"/>
      <point x="264" y="800" type="line"/>
    </contour>
    <contour>
      <point x="54" y="528" type="line"/>
      <point x="874" y="528" type="line"/>
      <point x="874" y="800" type="line"/>
      <point x="54" y="800" type="line"/>
    </contour>
    <contour>
      <point x="54" y="0" type="line"/>
      <point x="874" y="0" type="line"/>
      <point x="874" y="272" type="line"/>
      <point x="54" y="272" type="line"/>
    </contour>
  </outline>
</glyph>
<glyph name="J" format="2">
  <advance width="843"/>
  <unicode hex="004A"/>
  <outline>
    <contour>
      <point x="225" y="-10" type="curve" smooth="yes"/>
      <point x="572" y="-10"/>
      <point x="789" y="128"/>
      <point x="789" y="415" type="curve" smooth="yes"/>
      <point x="789" y="800" type="line"/>
      <point x="380" y="800" type="line"/>
      <point x="380" y="452" type="line" smooth="yes"/>
      <point x="380" y="332"/>
      <point x="319" y="282"/>
      <point x="219" y="282" type="curve" smooth="yes"/>
      <point x="194" y="282"/>
      <point x="148" y="283"/>
      <point x="99" y="292" type="curve"/>
      <point x="54" y="5" type="line"/>
      <point x="107" y="-6"/>
      <point x="164" y="-10"/>
    </contour>
  </outline>
</glyph>
<glyph name="K" format="2">
  <advance width="1217"/>
  <unicode hex="004B"/>
  <outline>
    <contour>
      <point x="54" y="0" type="line"/>
      <point x="454" y="0" type="line"/>
      <point x="454" y="800" type="line"/>
      <point x="54" y="800" type="line"/>
    </contour>
    <contour>
      <point x="324" y="312" type="line"/>
      <point x="463" y="312" type="line"/>
      <point x="695" y="0" type="line"/>
      <point x="1199" y="0" type="line"/>
      <point x="791" y="533" type="line"/>
      <point x="466" y="452" type="line"/>
      <point x="324" y="452" type="line"/>
    </contour>
    <contour>
      <point x="441" y="426" type="line"/>
      <point x="660" y="318" type="line"/>
      <point x="1185" y="800" type="line"/>
      <point x="733" y="800" type="line"/>
    </contour>
  </outline>
</glyph>
<glyph name="L" format="2">
  <advance width="966"/>
  <unicode hex="004C"/>
  <outline>
    <contour>
      <point x="54" y="0" type="line"/>
      <point x="454" y="0" type="line"/>
      <point x="454" y="800" type="line"/>
      <point x="54" y="800" type="line"/>
    </contour>
    <contour>
      <point x="146" y="0" type="line"/>
      <point x="946" y="0" type="line"/>
      <point x="946" y="274" type="line"/>
      <point x="146" y="274" type="line"/>
    </contour>
  </outline>
</glyph>
<glyph name="M" format="2">
  <advance width="1205"/>
  <unicode hex="004D"/>
  <outline>
    <contour>
      <point x="54" y="0" type="line"/>
      <point x="360" y="0" type="line"/>
      <point x="360" y="800" type="line"/>
      <point x="54" y="800" type="line"/>
    </contour>
    <contour>
      <point x="1151" y="0" type="line"/>
      <point x="1151" y="800" type="line"/>
      <point x="845" y="800" type="line"/>
      <point x="845" y="0" type="line"/>
    </contour>
    <contour>
      <point x="965" y="409" type="line"/>
      <point x="845" y="800" type="line"/>
      <point x="580" y="548" type="line"/>
      <point x="625" y="548" type="line"/>
      <point x="360" y="800" type="line"/>
      <point x="240" y="409" type="line"/>
      <point x="540" y="132" type="line"/>
      <point x="664" y="132" type="line"/>
    </contour>
  </outline>
</glyph>
<glyph name="N" format="2">
  <advance width="1218"/>
  <unicode hex="004E"/>
  <outline>
    <contour>
      <point x="54" y="0" type="line"/>
      <point x="360" y="0" type="line"/>
      <point x="360" y="800" type="line"/>
      <point x="54" y="800" type="line"/>
    </contour>
    <contour>
      <point x="231" y="467" type="line"/>
      <point x="857" y="0" type="line"/>
      <point x="986" y="333" type="line"/>
      <point x="360" y="800" type="line"/>
    </contour>
    <contour>
      <point x="858" y="0" type="line"/>
      <point x="1164" y="0" type="line"/>
      <point x="1164" y="800" type="line"/>
      <point x="858" y="800" type="line"/>
    </contour>
  </outline>
</glyph>
<glyph name="O" format="2">
  <advance width="1274"/>
  <unicode hex="004F"/>
  <outline>
    <contour>
      <point x="554" y="-10" type="curve" smooth="yes"/>
      <point x="719" y="-10" type="line" smooth="yes"/>
      <point x="1037" y="-10"/>
      <point x="1238" y="124"/>
      <point x="1238" y="403" type="curve" smooth="yes"/>
      <point x="1238" y="679"/>
      <point x="1037" y="810"/>
      <point x="719" y="810" type="curve" smooth="yes"/>
      <point x="554" y="810" type="line" smooth="yes"/>
      <point x="236" y="810"/>
      <point x="36" y="679"/>
      <point x="36" y="403" type="curve" smooth="yes"/>
      <point x="36" y="124"/>
      <point x="236" y="-10"/>
    </contour>
    <contour>
      <point x="599" y="254" type="line" smooth="yes"/>
      <point x="503" y="254"/>
      <point x="446" y="298"/>
      <point x="446" y="403" type="curve" smooth="yes"/>
      <point x="446" y="504"/>
      <point x="503" y="546"/>
      <point x="599" y="546" type="curve" smooth="yes"/>
      <point x="676" y="546" type="line" smooth="yes"/>
      <point x="772" y="546"/>
      <point x="828" y="504"/>
      <point x="828" y="403" type="curve" smooth="yes"/>
      <point x="828" y="298"/>
      <point x="772" y="254"/>
      <point x="676" y="254" type="curve" smooth="yes"/>
    </contour>
  </outline>
</glyph>
<glyph name="P" format="2">
  <advance width="1116"/>
  <unicode hex="0050"/>
  <outline>
    <contour>
      <point x="54" y="0" type="line"/>
      <point x="454" y="0" type="line"/>
      <point x="454" y="800" type="line"/>
      <point x="54" y="800" type="line"/>
    </contour>
    <contour>
      <point x="304" y="520" type="line"/>
      <point x="653" y="520" type="line" smooth="yes"/>
      <point x="709" y="520"/>
      <point x="734" y="508"/>
      <point x="734" y="461" type="curve" smooth="yes"/>
      <point x="734" y="408"/>
      <point x="709" y="400"/>
      <point x="653" y="400" type="curve" smooth="yes"/>
      <point x="304" y="400" type="line"/>
      <point x="304" y="119" type="line"/>
      <point x="630" y="119" type="line" smooth="yes"/>
      <point x="978" y="119"/>
      <point x="1096" y="231"/>
      <point x="1096" y="461" type="curve" smooth="yes"/>
      <point x="1096" y="689"/>
      <point x="978" y="800"/>
      <point x="632" y="800" type="curve" smooth="yes"/>
      <point x="304" y="800" type="line"/>
    </contour>
  </outline>
</glyph>
<glyph name="Q" format="2">
  <advance width="1274"/>
  <unicode hex="0051"/>
  <outline>
    <contour>
      <point x="530" y="-130" type="line"/>
      <point x="928" y="-130" type="line"/>
      <point x="794" y="170" type="line"/>
      <point x="401" y="170" type="line"/>
    </contour>
    <component base="O"/>
  </outline>
</glyph>
<glyph name="R" format="2">
  <advance width="1118"/>
  <unicode hex="0052"/>
  <outline>
    <contour>
      <point x="677" y="0" type="line"/>
      <point x="1086" y="0" type="line"/>
      <point x="1038" y="109" type="line" smooth="yes"/>
      <point x="1002" y="176"/>
      <point x="951" y="229"/>
      <point x="859" y="229" type="curve"/>
      <point x="585" y="229" type="line"/>
    </contour>
    <contour>
      <point x="54" y="0" type="line"/>
      <point x="454" y="0" type="line"/>
      <point x="454" y="800" type="line"/>
      <point x="54" y="800" type="line"/>
    </contour>
    <contour>
      <point x="304" y="520" type="line"/>
      <point x="655" y="520" type="line" smooth="yes"/>
      <point x="711" y="520"/>
      <point x="736" y="508"/>
      <point x="736" y="461" type="curve" smooth="yes"/>
      <point x="736" y="408"/>
      <point x="711" y="400"/>
      <point x="655" y="400" type="curve" smooth="yes"/>
      <point x="304" y="400" type="line"/>
      <point x="304" y="179" type="line"/>
      <point x="634" y="179" type="line" smooth="yes"/>
      <point x="978" y="179"/>
      <point x="1098" y="281"/>
      <point x="1098" y="491" type="curve" smooth="yes"/>
      <point x="1098" y="699"/>
      <point x="976" y="800"/>
      <point x="633" y="800" type="curve" smooth="yes"/>
      <point x="304" y="800" type="line"/>
    </contour>
  </outline>
</glyph>
<glyph name="S" format="2">
  <advance width="1124"/>
  <unicode hex="0053"/>
  <outline>
    <contour>
      <point x="1096" y="253" type="curve" smooth="yes"/>
      <point x="1096" y="462"/>
      <point x="974" y="522"/>
      <point x="671" y="531" type="curve" smooth="yes"/>
      <point x="497" y="536" type="line" smooth="yes"/>
      <point x="373" y="539"/>
      <point x="363" y="542"/>
      <point x="363" y="552" type="curve" smooth="yes"/>
      <point x="363" y="563"/>
      <point x="385" y="567"/>
      <point x="466" y="567" type="curve" smooth="yes"/>
      <point x="640" y="567" type="line" smooth="yes"/>
      <point x="775" y="567"/>
      <point x="909" y="558"/>
      <point x="1008" y="548" type="curve"/>
      <point x="1043" y="780" type="line"/>
      <point x="946" y="793"/>
      <point x="779" y="810"/>
      <point x="690" y="810" type="curve" smooth="yes"/>
      <point x="577" y="810" type="line" smooth="yes"/>
      <point x="184" y="810"/>
      <point x="31" y="724"/>
      <point x="31" y="529" type="curve" smooth="yes"/>
      <point x="31" y="343"/>
      <point x="174" y="278"/>
      <point x="457" y="269" type="curve" smooth="yes"/>
      <point x="620" y="264" type="line" smooth="yes"/>
      <point x="731" y="260"/>
      <point x="752" y="259"/>
      <point x="752" y="246" type="curve" smooth="yes"/>
      <point x="752" y="238"/>
      <point x="730" y="234"/>
      <point x="649" y="234" type="curve" smooth="yes"/>
      <point x="485" y="234" type="line" smooth="yes"/>
      <point x="327" y="234"/>
      <point x="181" y="242"/>
      <point x="68" y="255" type="curve"/>
      <point x="33" y="20" type="line"/>
      <point x="148" y="5"/>
      <point x="330" y="-10"/>
      <point x="437" y="-10" type="curve" smooth="yes"/>
      <point x="563" y="-10" type="line" smooth="yes"/>
      <point x="976" y="-10"/>
      <point x="1096" y="96"/>
    </contour>
  </outline>
</glyph>
<glyph name="T" format="2">
  <advance width="1132"/>
  <unicode hex="0054"/>
  <outline>
    <contour>
      <point x="366" y="0" type="line"/>
      <point x="766" y="0" type="line"/>
      <point x="766" y="800" type="line"/>
      <point x="366" y="800" type="line"/>
    </contour>
    <contour>
      <point x="20" y="502" type="line"/>
      <point x="1112" y="502" type="line"/>
      <point x="1112" y="800" type="line"/>
      <point x="20" y="800" type="line"/>
    </contour>
  </outline>
</glyph>
<glyph name="U" format="2">
  <advance width="1213"/>
  <unicode hex="0055"/>
  <outline>
    <contour>
      <point x="606" y="-10" type="curve" smooth="yes"/>
      <point x="938" y="-10"/>
      <point x="1135" y="128"/>
      <point x="1135" y="415" type="curve" smooth="yes"/>
      <point x="1135" y="800" type="line"/>
      <point x="726" y="800" type="line"/>
      <point x="726" y="405" type="line" smooth="yes"/>
      <point x="726" y="315"/>
      <point x="681" y="278"/>
      <point x="607" y="278" type="curve" smooth="yes"/>
      <point x="533" y="278"/>
      <point x="488" y="315"/>
      <point x="488" y="405" type="curve" smooth="yes"/>
      <point x="488" y="800" type="line"/>
      <point x="78" y="800" type="line"/>
      <point x="78" y="415" type="line" smooth="yes"/>
      <point x="78" y="128"/>
      <point x="273" y="-10"/>
    </contour>
  </outline>
</glyph>
<glyph name="V" format="2">
  <advance width="1204"/>
  <unicode hex="0056"/>
  <outline>
    <contour>
      <point x="1186" y="800" type="line"/>
      <point x="872" y="800" type="line"/>
      <point x="591" y="0" type="line"/>
      <point x="859" y="0" type="line"/>
    </contour>
    <contour>
      <point x="462" y="800" type="line"/>
      <point x="18" y="800" type="line"/>
      <point x="337" y="0" type="line"/>
      <point x="761" y="0" type="line"/>
    </contour>
    <contour>
      <point x="819" y="260" type="line"/>
      <point x="429" y="260" type="line"/>
      <point x="429" y="0" type="line"/>
      <point x="819" y="0" type="line"/>
    </contour>
  </outline>
</glyph>
<glyph name="W" format="2">
  <advance width="1273"/>
  <unicode hex="0057"/>
  <outline>
    <contour>
      <point x="1255" y="800" type="line"/>
      <point x="900" y="800" type="line"/>
      <point x="831" y="270" type="line"/>
      <point x="859" y="270" type="line"/>
      <point x="788" y="800" type="line"/>
      <point x="527" y="800" type="line"/>
      <point x="464" y="270" type="line"/>
      <point x="491" y="270" type="line"/>
      <point x="422" y="800" type="line"/>
      <point x="18" y="800" type="line"/>
      <point x="163" y="0" type="line"/>
      <point x="574" y="0" type="line"/>
      <point x="640" y="457" type="line"/>
      <point x="580" y="457" type="line"/>
      <point x="661" y="0" type="line"/>
      <point x="1114" y="0" type="line"/>
    </contour>
  </outline>
</glyph>
<glyph name="X" format="2">
  <advance width="1174"/>
  <unicode hex="0058"/>
  <outline>
    <contour>
      <point x="688" y="0" type="line"/>
      <point x="1156" y="0" type="line"/>
      <point x="747" y="477" type="line"/>
      <point x="486" y="800" type="line"/>
      <point x="18" y="800" type="line"/>
      <point x="409" y="369" type="line"/>
    </contour>
    <contour>
      <point x="18" y="0" type="line"/>
      <point x="424" y="0" type="line"/>
      <point x="603" y="319" type="line"/>
      <point x="751" y="326" type="line"/>
      <point x="1156" y="800" type="line"/>
      <point x="750" y="800" type="line"/>
      <point x="554" y="492" type="line"/>
      <point x="400" y="482" type="line"/>
    </contour>
  </outline>
</glyph>
<glyph name="Y" format="2">
  <advance width="1116"/>
  <unicode hex="0059"/>
  <outline>
    <contour>
      <point x="1098" y="800" type="line"/>
      <point x="772" y="800" type="line"/>
      <point x="494" y="208" type="line"/>
      <point x="758" y="208" type="line"/>
    </contour>
    <contour>
      <point x="432" y="800" type="line"/>
      <point x="18" y="800" type="line"/>
      <point x="358" y="208" type="line"/>
      <point x="728" y="208" type="line"/>
    </contour>
    <contour>
      <point x="758" y="358" type="line"/>
      <point x="358" y="358" type="line"/>
      <point x="358" y="0" type="line"/>
      <point x="758" y="0" type="line"/>
    </contour>
  </outline>
</glyph>
<glyph name="Z" format="2">
  <advance width="1152"/>
  <unicode hex="005A"/>
  <outline>
    <contour>
      <point x="54" y="274" type="line"/>
      <point x="540" y="190" type="line"/>
      <point x="1098" y="526" type="line"/>
      <point x="612" y="610" type="line"/>
    </contour>
    <contour>
      <point x="54" y="526" type="line"/>
      <point x="1098" y="526" type="line"/>
      <point x="1098" y="800" type="line"/>
      <point x="54" y="800" type="line"/>
    </contour>
    <contour>
      <point x="54" y="0" type="line"/>
      <point x="1098" y="0" type="line"/>
      <point x="1098" y="274" type="line"/>
      <point x="54" y="274" type="line"/>
    </contour>
  </outline>
</glyph>
